<svg role="img" viewBox="0 0 24 24" xmlns="http://www.w3.org/2000/svg"><title>BUDNI icon</title><path d="M0 0c1.004 7.895.949 15.541 0 24h24c-.895-8.04-.895-16.122 0-24zm.813.821h22.378a100.625 99.918 0 0 0 0 22.356H.811C1.615 16.07 1.833 8.782.813.82zm3.534 10.263h-.089v-1.02h.218c.33 0 .596.188.596.492-.008.406-.312.532-.725.532v-.006zm.258 1.738h-.339v-1.11h.31c.367 0 .65.207.65.538 0 .355-.212.572-.619.572zM2.998 9.44s.306.158.306.322v3.363s-.06.239-.244.321h1.92c.78 0 1.257-.544 1.257-1.208 0-.486-.264-.72-.691-.985.375-.244.51-.421.51-.845 0-.63-.637-.966-1.29-.966H2.998zM3 9.443c.008.004.303.157.303.319v3.363s-.058.237-.243.321h1.92c.78 0 1.257-.543 1.257-1.207 0-.486-.264-.722-.688-.986.373-.245.508-.422.508-.845 0-.63-.639-.965-1.292-.965zm1.259.62h.217c.33 0 .596.19.596.493-.008.405-.311.531-.724.531v-.004h-.09zm.008 1.648h.308c.367 0 .651.21.651.54 0 .355-.212.571-.62.571h-.339zm8.159 1.219h-.199v-2.648c.278.03.496-.004.758.118.486.225.55.786.55 1.19 0 .611-.133 1.34-1.11 1.34m-1.488-3.298s.258.169.258.309v3.33c0 .106-.301.276-.301.276h1.857c1.23 0 1.852-1.025 1.852-1.884 0-1.123-.453-1.94-2-2.03-.155-.007-.318-.007-.48-.007h-.362l-.572.006m.573-.006l-.572.006h-.253s.259.17.259.31v3.33c0 .108-.303.275-.303.275h1.858c1.23 0 1.851-1.026 1.851-1.885 0-1.123-.452-1.94-2-2.028-.154-.008-.318-.008-.48-.008zm.464.656c.278.03.498-.004.76.118.486.225.55.785.55 1.19 0 .61-.133 1.34-1.11 1.34h-.2zm-4.079-.656H6.68s.21.122.21.24v.512c0 .424.006.848.006 1.27.008.543-.083 1.162.405 1.603.316.28.774.406 1.242.406 1.622 0 1.733-.847 1.733-1.89.006-.624 0-1.249 0-1.873 0-.197.2-.178.2-.268H8.973s.206.096.206.248v2.534c0 .286-.198.556-.595.556-.439 0-.615-.276-.615-.584V9.852c0-.144.178-.226.178-.226m0 0H6.68s.21.122.21.24v.512c0 .424.006.848.006 1.27.008.543-.083 1.162.405 1.603.316.28.774.406 1.242.406 1.622 0 1.733-.847 1.733-1.89.006-.624 0-1.249 0-1.873 0-.197.2-.178.2-.268H8.973s.206.096.206.248v2.534c0 .286-.198.556-.595.556-.439 0-.615-.276-.615-.584V9.852c0-.144.178-.226.178-.226zm11.289 0s.22.108.22.216v3.472s-.015.162-.174.237h1.506s-.204-.142-.204-.237v-3.46c0-.14.222-.228.222-.228m-1.347.216v3.472s-.016.162-.179.237h1.508s-.204-.142-.204-.237v-3.46c0-.14.222-.228.222-.228h-1.568s.219.108.219.216zm-4.406-.386l2.421 2.148v-1.366c0-.28-.307-.61-.307-.61h1.601c-.333.25-.303.547-.303.547v3.705l-2.366-2.162v1.322c0 .292.258.497.258.497h-1.536c.292-.195.232-.55.232-.55m0-3.531l2.421 2.148v-1.366c0-.28-.307-.61-.307-.61h1.601c-.333.25-.303.547-.303.547v3.705l-2.366-2.162v1.322c0 .292.258.497.258.497h-1.536c.292-.195.232-.55.232-.55z"/></svg>