<svg role="img" viewBox="0 0 24 24" xmlns="http://www.w3.org/2000/svg"><title>VILSA icon</title><path d="M22.795 11.416c.024.051.055.102.09.17.037.073.078.165.117.296.112.375.948 3.627-2.714 4.235-2.045.34-3.892-.831-4.873-1.73-.285-.26-.57-.552-.84-.78-.27-.23-.511-.382-.71-.384-.184-.003-.289.037-.394.138.206.033.42.237.625.485.29.408.59.841.59.841.002.002 2.143 3.096 5.161 3 2.955-.092 4.095-2.362 4.15-3.807.06-1.599-.725-2.276-.935-2.383a.825.825 0 0 0-.267-.08M17.848 8.81c.408-1.272-.274-2.408-1.91-2.495-1.84-.097-2.639 1.21-2.867 2.119-.21.838.08 1.756.616 2.786.507.975.61 1.137.721 1.552.2.748-.067 1.336-.774 1.273-.62-.055-.858-.794-.393-1.547a191.35 191.35 0 0 0-1.782-.006c-.283 1.398.425 2.53 1.687 2.644 2.345.212 3.487-1.084 3.487-2.785 0-1.256-1.41-2.926-1.424-3.925-.012-.985.553-1.04.672-1.029.256.024.457.132.547.41.092.282.031.69-.208 1.002h1.628m4.57-2.209h-2.81l-3.081 8.263h1.393s.634-1.84.645-1.863H20.1v1.861h2.32zm-2.32 2.012v3.2H18.97s1.102-3.108 1.126-3.2M10.324 6.6l-3.021 8.27h3.812l.407-1.2h-1.351l2.583-7.07zm-3.675 0l-3.023 8.27h2.462L9.097 6.6zM0 6.6v8.27h2.393L5.409 6.6H4.004s-1.61 4.702-1.622 4.812h-.023V6.6H0"/></svg>